<mxfile host="app.diagrams.net" modified="2023-07-31T08:38:18.834Z" agent="Mozilla/5.0 (Macintosh; Intel Mac OS X 10_15_7) AppleWebKit/537.36 (KHTML, like Gecko) Chrome/115.0.0.0 Safari/537.36" version="21.6.6" etag="JUqyXqdm24LXcYnb8ZD8" type="github">
  <diagram name="페이지-1" id="Dog9Xk-74qKa5ElSa2k0">
    <mxGraphModel>
      <root>
        <mxCell id="0" />
        <mxCell id="1" parent="0" />
      </root>
    </mxGraphModel>
  </diagram>
</mxfile>
